<?xml version="1.0" standalone="no"?>
<!DOCTYPE svg PUBLIC "-//W3C//DTD SVG 20010904//EN"
 "http://www.w3.org/TR/2001/REC-SVG-20010904/DTD/svg10.dtd">
<svg version="1.0" xmlns="http://www.w3.org/2000/svg"
 width="123.000000pt" height="122.000000pt" viewBox="0 0 123.000000 122.000000"
 preserveAspectRatio="xMidYMid meet">

<g transform="translate(0.000000,122.000000) scale(0.100000,-0.100000)"
fill="#000000" stroke="none">
<path d="M765 1115 c-71 -52 -135 -94 -141 -95 -6 0 -62 36 -124 81 l-113 81
6 -140 6 -139 -67 -7 c-37 -3 -110 -6 -162 -7 -171 -2 -170 2 -8 -124 78 -60
150 -116 159 -122 14 -11 21 -10 38 5 l21 17 -44 55 c-25 30 -45 58 -46 61 0
4 30 10 68 13 37 4 82 10 100 13 l32 5 1 67 c1 36 4 76 7 89 7 22 7 22 61 -14
l54 -36 94 42 c51 24 95 41 97 39 2 -2 9 -46 15 -98 7 -52 14 -97 16 -101 2
-4 32 -13 65 -20 33 -7 60 -16 60 -21 0 -4 -22 -21 -50 -38 -27 -17 -50 -33
-50 -35 0 -3 18 -35 40 -73 l39 -68 -77 -3 c-46 -2 -79 -8 -84 -15 -4 -7 -8
-34 -8 -62 0 -27 -3 -67 -6 -87 l-6 -37 -61 46 c-57 44 -61 45 -73 28 -8 -10
-14 -23 -14 -27 0 -5 47 -78 104 -164 121 -181 109 -186 126 56 6 85 13 161
15 167 3 9 51 -4 160 -42 86 -30 158 -55 160 -55 3 0 -39 68 -91 151 -52 82
-94 155 -92 160 2 6 48 30 103 55 55 25 104 49 108 54 5 4 -54 29 -131 54
-158 53 -152 46 -152 162 0 93 -11 224 -19 223 -3 0 -64 -43 -136 -94z"/>
<path d="M686 811 l-68 -14 -230 -249 c-127 -136 -233 -248 -236 -248 -3 0
-20 14 -37 30 -29 28 -33 29 -45 15 -11 -13 -11 -18 1 -29 8 -7 67 -61 131
-120 78 -71 123 -106 133 -102 23 8 18 23 -15 48 -17 12 -29 27 -28 34 2 6
105 122 229 257 l227 245 7 71 c4 40 6 73 4 75 -2 1 -35 -5 -73 -13z"/>
<path d="M67 136 c-71 -79 -74 -92 -30 -121 21 -14 27 -15 37 -3 7 7 38 40 69
74 l57 60 -33 32 -33 32 -67 -74z"/>
</g>
</svg>
